<?xml version="1.0" encoding="UTF-8" standalone="no"?>
<svg
   viewBox="8 8 76 75.999999"
   version="1.1"
   id="svg1"
   sodipodi:docname="mouseMiddleDrag.svg"
   inkscape:version="1.4.4 (dcaf3e7, 2026-05-05)"
   width="76"
   height="76"
   xmlns:inkscape="http://www.inkscape.org/namespaces/inkscape"
   xmlns:sodipodi="http://sodipodi.sourceforge.net/DTD/sodipodi-0.dtd"
   xmlns="http://www.w3.org/2000/svg"
   xmlns:svg="http://www.w3.org/2000/svg">
  <defs
     id="defs1" />
  <sodipodi:namedview
     id="namedview1"
     pagecolor="#ffffff"
     bordercolor="#000000"
     borderopacity="0.25"
     inkscape:showpageshadow="2"
     inkscape:pageopacity="0.0"
     inkscape:pagecheckerboard="0"
     inkscape:deskcolor="#d1d1d1"
     inkscape:zoom="7.1447368"
     inkscape:cx="37.930018"
     inkscape:cy="38"
     inkscape:current-layer="svg1" />
  <path
     id="path15"
     style="baseline-shift:baseline;display:inline;overflow:visible;opacity:1;vector-effect:none;stroke-linecap:round;enable-background:accumulate;stop-color:#000000;stop-opacity:1"
     d="m 47.974609,21 c -0.710165,2.37e-4 -1.420453,0.04387 -2.125046,0.13281 -0.70631,0.0618 -1.119541,0.962671 -0.70728,1.538938 0.24499,0.414077 0.747702,0.50122 1.183045,0.419492 0.704235,-0.078 1.413817,-0.105381 2.121973,-0.08344 0.755434,0.06153 1.290136,-0.866695 0.89878,-1.493438 C 49.16749,21.188507 48.798979,20.996757 48.431856,21.007161 48.28277,21.001441 48.133535,21.002421 47.984375,21 l -0.0059,0.0039 z m 4.462891,0.628906 c -0.69253,-0.04272 -1.236255,0.753244 -0.943231,1.382837 0.124163,0.329107 0.434975,0.532831 0.764263,0.610984 0.541492,0.162756 1.074263,0.354178 1.594179,0.576534 0.570613,0.305724 1.348613,-0.08819 1.434114,-0.729755 0.08792,-0.463904 -0.203774,-0.954269 -0.647648,-1.108813 -0.633067,-0.270137 -1.282405,-0.502364 -1.943865,-0.692732 l -0.127628,-0.02797 z m -10.304688,0.482422 c -0.308915,0.0013 -0.580895,0.155813 -0.860801,0.265803 -0.493531,0.211563 -0.976887,0.446864 -1.447792,0.704897 -0.635881,0.313322 -0.695184,1.303415 -0.101165,1.690324 0.374325,0.292646 0.869617,0.198526 1.242299,-0.03351 0.513695,-0.274503 1.046902,-0.510406 1.587013,-0.727469 0.45988,-0.211172 0.688619,-0.798758 0.492556,-1.265281 -0.140548,-0.370639 -0.515733,-0.631744 -0.91211,-0.634763 z M 57.75,24.324219 c -0.714484,-0.03771 -1.253587,0.812251 -0.907235,1.442099 0.136474,0.282352 0.411894,0.433315 0.638267,0.63094 0.365909,0.300856 0.719484,0.616992 1.056077,0.950386 0.508641,0.563793 1.535962,0.252358 1.678592,-0.473991 0.0922,-0.360198 -0.04632,-0.751965 -0.321662,-0.995229 -0.399394,-0.393892 -0.819336,-0.766601 -1.256321,-1.118288 -0.208368,-0.161055 -0.403903,-0.352379 -0.671931,-0.409828 z m -20.646484,0.96875 c -0.362837,-0.03036 -0.659309,0.194607 -0.897588,0.438539 -0.451574,0.433264 -0.879483,0.891254 -1.280147,1.372008 -0.26647,0.310917 -0.307398,0.788935 -0.09766,1.140625 -3.082871,1.802612 -5.59331,4.554347 -7.129732,7.776192 -1.466968,3.050784 -2.051815,6.520915 -1.643352,9.882762 0.111848,0.978816 0.323035,1.942768 0.585181,2.891502 1.35827,5.067977 2.715137,10.136331 4.073787,15.204205 0.85849,3.151916 2.603046,6.054848 4.983676,8.291871 2.757975,2.609962 6.35488,4.318522 10.123257,4.793175 3.955378,0.513976 8.069984,-0.354689 11.487758,-2.40827 3.054201,-1.822778 5.532773,-4.581373 7.04254,-7.799919 0.809704,-1.7183 1.347584,-3.564748 1.582354,-5.449878 0.546294,0.348744 1.277275,0.0147 1.480721,-0.566348 0.285041,-0.589652 0.536816,-1.195628 0.751789,-1.814596 0.173078,-0.474962 -0.08301,-1.050194 -0.551776,-1.239413 -0.536768,-0.252401 -1.215612,0.09029 -1.362451,0.654953 -0.05893,0.164397 -0.119081,0.328401 -0.183431,0.490757 -0.02168,-1.557021 -0.252674,-3.109511 -0.671884,-4.608804 -1.369046,-5.10901 -2.737988,-10.218049 -4.106729,-15.327141 -0.843281,-3.104772 -2.545243,-5.969354 -4.869674,-8.193794 -2.711122,-2.61222 -6.254692,-4.345922 -9.983542,-4.871223 -2.741628,-0.396472 -5.571123,-0.129879 -8.1973,0.746389 -0.103524,0.03446 -0.206737,0.06986 -0.309625,0.106173 0.264873,-0.426108 0.138683,-1.03671 -0.276089,-1.321357 -0.159344,-0.115405 -0.353446,-0.181886 -0.550083,-0.188408 z m 24.582031,3.488281 c -0.764865,-0.02242 -1.266222,0.951212 -0.808862,1.564352 0.308419,0.522004 0.586426,1.062191 0.830351,1.617292 0.272486,0.709517 1.343047,0.786768 1.738137,0.160904 0.217866,-0.305058 0.227186,-0.723574 0.05519,-1.051038 -0.225267,-0.508787 -0.479577,-1.004463 -0.752787,-1.489052 -0.133798,-0.224111 -0.245727,-0.470497 -0.470811,-0.622087 -0.171484,-0.120502 -0.381674,-0.184622 -0.591215,-0.180371 z m -17.359375,0.988281 c 2.888991,0.06964 5.743576,1.073374 8.046102,2.818457 2.158596,1.622606 3.822974,3.889013 4.728408,6.432914 0.272203,0.751075 0.455111,1.529223 0.666011,2.29864 0.226857,0.847262 0.453715,1.694524 0.680573,2.541786 -2.938926,2.40571 -6.233489,4.400476 -9.795147,5.736286 -3.309747,1.249709 -6.833523,1.9164 -10.368919,2.000995 -2.30317,0.05853 -4.609776,-0.120614 -6.882809,-0.491187 -0.346351,-1.295599 -0.69547,-2.590468 -1.040013,-3.886544 -0.675977,-2.626433 -0.568197,-5.449358 0.321022,-8.012498 0.965175,-2.820703 2.860591,-5.313001 5.326489,-6.989623 2.425206,-1.659268 5.381269,-2.526551 8.318283,-2.449226 z m -2.050781,3.246094 c -1.071276,-0.05058 -2.153859,0.359802 -2.92179,1.108689 -0.847362,0.810882 -1.313837,2.004552 -1.225297,3.175599 0.02571,0.469918 0.176432,0.917744 0.292584,1.370151 0.470009,1.751964 0.937875,3.504516 1.409228,5.25611 0.278725,0.983623 0.91686,1.879999 1.811908,2.39051 0.925792,0.53184 2.065233,0.63105 3.087003,0.347283 1.016671,-0.273396 1.939529,-0.933343 2.46507,-1.853402 0.514655,-0.894227 0.613142,-1.991512 0.355836,-2.982525 -0.529533,-1.97538 -1.058832,-3.950842 -1.590129,-5.925744 -0.284107,-1.003411 -0.985602,-1.875477 -1.897176,-2.379474 -0.545468,-0.304957 -1.16248,-0.482284 -1.787237,-0.507197 z m 21.55664,1.349609 c -0.663811,-0.02609 -1.177361,0.709234 -0.946493,1.326291 0.166409,0.621053 0.332819,1.242106 0.499228,1.863159 0.158754,0.742711 1.203626,0.986086 1.691085,0.429467 0.260197,-0.265436 0.337046,-0.673961 0.22037,-1.022377 -0.165797,-0.618769 -0.331595,-1.237539 -0.497393,-1.856309 -0.108384,-0.428451 -0.524874,-0.747362 -0.966797,-0.740231 z m 1.552735,5.794922 c -0.656519,-0.02374 -1.178147,0.702094 -0.948329,1.319444 0.167021,0.623335 0.334042,1.246671 0.501063,1.870006 0.158754,0.742711 1.203626,0.986087 1.691085,0.429468 0.260522,-0.26549 0.336592,-0.673884 0.220371,-1.022377 -0.165798,-0.618769 -0.331596,-1.237539 -0.497394,-1.856309 -0.108385,-0.428451 -0.524872,-0.74736 -0.966796,-0.740232 z m -6.410157,5.667969 c 0.880699,3.287754 1.762129,6.575313 2.64237,9.863188 0.685725,2.597008 0.605447,5.39162 -0.244494,7.940721 -0.939599,2.858439 -2.831378,5.393242 -5.309706,7.100622 -2.954019,2.052046 -6.713569,2.908474 -10.26359,2.320336 -2.994569,-0.481884 -5.813302,-1.97601 -7.894885,-4.181784 -1.640252,-1.724288 -2.815001,-3.879097 -3.401458,-6.184006 -0.85837,-3.204328 -1.716741,-6.408655 -2.575112,-9.612983 3.837362,0.555508 7.766141,0.639969 11.597347,-0.01162 2.842645,-0.476151 5.606956,-1.385063 8.199304,-2.641131 2.582525,-1.246945 4.999255,-2.82053 7.250224,-4.593347 z m 7.962891,0.126953 c -0.660444,-0.02594 -1.17505,0.703666 -0.948329,1.319444 0.167021,0.623335 0.334042,1.246671 0.501063,1.870006 0.158754,0.742711 1.203626,0.986086 1.691085,0.429467 0.260197,-0.265435 0.337047,-0.67396 0.220371,-1.022376 C 68.235893,47.93285 68.070095,47.314081 67.904297,46.695312 67.795911,46.26686 67.37943,45.947958 66.9375,45.955078 Z m 1.119141,5.869141 c -0.573822,0.0083 -1.016962,0.568108 -0.951668,1.123829 0.02148,0.594361 0.0062,1.189986 -0.04638,1.782422 -0.09592,0.70287 0.692489,1.305412 1.345626,1.029172 0.431968,-0.143343 0.653687,-0.586738 0.66104,-1.016082 0.04904,-0.653374 0.06148,-1.309511 0.03635,-1.964241 -0.01118,-0.537068 -0.509092,-0.992088 -1.044972,-0.9551 z" />
</svg>
